HIERARCHY
ROOT ui
{
	 OFFSET 0 0 0
	 CHANNELS 3 XPosition YPosition Z Position
	 EndSite
	 {
	 OFFSET 0 -1 0
	 }
}
ROOT li
{
	 OFFSET 0 0 0
	 CHANNELS 3 XPosition YPosition Z Position
	 EndSite
	 {
	 OFFSET 0 -1 0
	 }
}
ROOT ul
{
	 OFFSET 0 0 0
	 CHANNELS 3 XPosition YPosition Z Position
	 EndSite
	 {
	 OFFSET 0 -1 0
	 }
}
ROOT ll
{
	 OFFSET 0 0 0
	 CHANNELS 3 XPosition YPosition Z Position
	 EndSite
	 {
	 OFFSET 0 -1 0
	 }
}
ROOT tt
{
	 OFFSET 0 0 0
	 CHANNELS 3 XPosition YPosition Z Position
	 EndSite
	 {
	 OFFSET 0 -1 0
	 }
}
ROOT tb
{
	 OFFSET 0 0 0
	 CHANNELS 3 XPosition YPosition Z Position
	 EndSite
	 {
	 OFFSET 0 -1 0
	 }
}
ROOT td
{
	 OFFSET 0 0 0
	 CHANNELS 3 XPosition YPosition Z Position
	 EndSite
	 {
	 OFFSET 0 -1 0
	 }
}
ROOT v
{
	 OFFSET 0 0 0
	 CHANNELS 3 XPosition YPosition Z Position
	 EndSite
	 {
	 OFFSET 0 -1 0
	 }
}
ROOT bn
{
	 OFFSET 0 0 0
	 CHANNELS 3 XPosition YPosition Z Position
	 EndSite
	 {
	 OFFSET 0 -1 0
	 }
}
MOTION
Frames: 32
Frame Time: 0.002
-0.01033787727355957	-4.1620901226997373E-4	0		0.5278909301757813	-2.60223095703125	0		-0.8279075317382812	0.39476083374023435	0		-0.18629403686523438	-3.190997314453125	0		1.949011962890625	-1.1106226806640624	0		3.4324814453125	-0.3785897216796875	0		4.711927734375	0.009217238426208496	0		5.7855361328125	0.18641549682617187	0		-0.28166790771484373	5.89918701171875	0		
-0.010260628700256349	-5.532739758491517E-4	0		0.5059888610839843	-2.593187255859375	0		-0.8938538208007812	0.3912221984863281	0		-0.3090914306640625	-3.16805078125	0		1.935319091796875	-1.0816824951171875	0		3.413770263671875	-0.35363925170898436	0		4.70013720703125	0.0240775146484375	0		5.79411572265625	0.17711888122558594	0		-0.30141171264648436	5.9042314453125	0		
-0.0011870789527893067	-0.0028032379150390624	0		0.541047607421875	-2.58768359375	0		-0.81771728515625	0.39441009521484377	0		-0.3198115539550781	-3.1351162109375	0		1.9086939697265626	-1.0456798095703126	0		3.4010888671875	-0.3268077392578125	0		4.67937158203125	0.03993814849853516	0		5.79709912109375	0.19546612548828124	0		-0.28603179931640627	5.9149375	0		
-0.003011478900909424	0.00500908899307251	0		0.5102134399414062	-2.5686376953125	0		-0.8945574951171875	0.39892111206054687	0		-0.32267868041992187	-3.117281982421875	0		1.918020263671875	-1.0160458374023438	0		3.374340576171875	-0.3089169921875	0		4.6626826171875	0.0626865119934082	0		5.80209228515625	0.17555526733398438	0		-0.26572412109375	5.9095673828125	0		
-0.004990985870361328	-0.006211970806121826	0		0.4994775085449219	-2.53780615234375	0		-0.8274573364257812	0.3941304626464844	0		-0.32555862426757814	-3.09947900390625	0		1.882435546875	-0.9770637817382812	0		3.385665283203125	-0.2844270935058594	0		4.64888427734375	0.07133422088623047	0		5.80217041015625	0.1746313934326172	0		-0.26530535888671875	5.909341796875	0		
-0.004858808994293213	-0.006485540866851807	0		0.4755232238769531	-2.530894775390625	0		-0.8322564086914063	0.3989503173828125	0		-0.31953848266601564	-3.091787841796875	0		1.8868416748046875	-0.9404866333007813	0		3.325989501953125	-0.26136471557617186	0		4.616166015625	0.08707982635498047	0		5.794412109375	0.17373393249511718	0		-0.26680419921875	5.9111015625	0		
-0.00966475486755371	-0.0017478179931640625	0		0.4795469665527344	-2.526270751953125	0		-0.889123291015625	0.39421395874023435	0		-0.36329754638671874	-3.058677734375	0		1.8673167724609374	-0.8977423095703125	0		3.327274658203125	-0.24490591430664063	0		4.60445703125	0.10156929779052734	0		5.79742138671875	0.1880355224609375	0		-0.2842293395996094	5.91397412109375	0		
0.006549163818359375	0.0027673420906066896	0		0.4616554260253906	-2.51248291015625	0		-0.8738978881835937	0.39680410766601565	0		-0.3502210693359375	-3.044109130859375	0		1.8727374267578125	-0.8632686157226562	0		3.3076904296875	-0.21631341552734376	0		4.59276171875	0.11499401092529297	0		5.797533203125	0.1866995086669922	0		-0.28163607788085937	5.9116376953125	0		
0.03274136734008789	0.002158341884613037	0		0.5206317138671875	-2.51443212890625	0		-0.81259228515625	0.4049449157714844	0		-0.385054443359375	-3.02012939453125	0		1.83326611328125	-0.8194251708984375	0		3.2920595703125	-0.19580674743652343	0		4.57817626953125	0.13738648986816407	0		5.79766162109375	0.185243408203125	0		-0.2839327392578125	5.91431884765625	0		
-0.002028778076171875	0.003082698106765747	0		0.4567630004882812	-2.500281982421875	0		-0.89340869140625	0.39737051391601563	0		-0.33494451904296874	-3.003957763671875	0		1.822664306640625	-0.79288232421875	0		3.255448486328125	-0.17615016174316406	0		4.56942626953125	0.13867138671875	0		5.7978076171875	0.1836791534423828	0		-0.2831957702636719	5.91394580078125	0		
0.0171481876373291	-0.004518902778625488	0		0.47786770629882813	-2.490945556640625	0		-0.8980817260742188	0.40207571411132814	0		-0.40575115966796876	-2.9796865234375	0		1.7973037109375	-0.7432334594726563	0		3.27472119140625	-0.1720535125732422	0		4.53376806640625	0.14716177368164063	0		5.801595703125	0.19750843811035157	0		-0.24834169006347656	5.92022900390625	0		
-0.0036263890266418457	-0.008770776748657226	0		0.45293966674804687	-2.4862041015625	0		-0.8828283081054688	0.39657098388671874	0		-0.36271975708007814	-2.974504150390625	0		1.79077001953125	-0.7147903442382812	0		3.238158447265625	-0.15246792602539064	0		4.51916845703125	0.15941844177246095	0		5.8053994140625	0.21125643920898438	0		-0.26646197509765623	5.9249833984375	0		
-0.013264368057250977	-1.4743000268936158E-4	0		0.461057373046875	-2.4777978515625	0		-0.9144732666015625	0.40049139404296874	0		-0.39346646118164064	-2.9466455078125	0		1.7923778076171875	-0.6734500732421875	0		3.2356494140625	-0.12923080444335938	0		4.5096044921875	0.17359703063964843	0		5.8055859375	0.2094541473388672	0		-0.2363942565917969	5.9462587890625	0		
0.0030767080783843993	0.005206808090209961	0		0.4552217102050781	-2.4652783203125	0		-0.883112548828125	0.4037900390625	0		-0.3963004150390625	-2.9290703125	0		1.765895751953125	-0.6428602905273437	0		3.208979736328125	-0.1237828140258789	0		4.49484814453125	0.16680342102050782	0		5.8057783203125	0.20760954284667968	0		-0.2355213928222656	5.9457900390625	0		
-0.003704387903213501	-0.002233421087265015	0		0.4842641296386719	-2.46611474609375	0		-0.8827864379882813	0.40336834716796877	0		-0.41307687377929686	-2.906375244140625	0		1.7414617919921875	-0.60830029296875	0		3.211419921875	-0.10762752532958984	0		4.47429833984375	0.18105682373046875	0		5.8096005859375	0.22122781372070313	0		-0.23079653930664062	5.9302666015625	0		
-0.012409298896789552	-0.0016661219596862792	0		0.46647998046875	-2.449506591796875	0		-0.8915409545898437	0.3950207824707031	0		-0.41691400146484375	-2.890818359375	0		1.734994140625	-0.5779223022460938	0		3.191764404296875	-0.10126188659667969	0		4.46666064453125	0.1861824951171875	0		5.80979443359375	0.21935806274414063	0		-0.24987994384765624	5.9359638671875	0		
-0.003138979911804199	-0.003286035060882568	0		0.454543701171875	-2.448962158203125	0		-0.9131824951171875	0.39879086303710937	0		-0.4638099365234375	-2.881843994140625	0		1.7514095458984376	-0.5597753295898438	0		3.196095458984375	-0.09613023376464844	0		4.4439697265625	0.186464599609375	0		5.81361474609375	0.23298867797851563	0		-0.21783981323242188	5.95614599609375	0		
0.009155599594116211	-0.0019439009428024292	0		0.4876416015625	-2.445871337890625	0		-0.9028824462890624	0.3972334899902344	0		-0.3956415100097656	-2.86802392578125	0		1.7510272216796876	-0.521459228515625	0		3.19745263671875	-0.08796014404296874	0		4.43441259765625	0.20063478088378905	0		5.834357421875	0.19953060913085938	0		-0.21604925537109376	5.95461767578125	0		
0.0035564188957214354	0.010576045036315918	0		0.4459549560546875	-2.42202685546875	0		-0.876490966796875	0.4055046081542969	0		-0.40632391357421876	-2.8404208984375	0		1.727750732421875	-0.47290194702148436	0		3.1669287109375	-0.06744931030273438	0		4.4346982421875	0.1997313232421875	0		5.8266943359375	0.19796121215820311	0		-0.21727093505859374	5.9561162109375	0		
-0.002334167003631592	-0.004899416923522949	0		0.4709827575683594	-2.42785205078125	0		-0.8232734985351563	0.397492919921875	0		-0.4151624755859375	-2.82983642578125	0		1.6879888916015624	-0.4721605224609375	0		3.153063232421875	-0.08007999420166016	0		4.41904638671875	0.20602520751953124	0		5.817083984375	0.2432325897216797	0		-0.1834944305419922	5.96225830078125	0		
9.473869800567627E-4	-0.0024616100788116455	0		0.44612521362304686	-2.423158447265625	0		-0.8909512329101562	0.4017139892578125	0		-0.4419850769042969	-2.819063720703125	0		1.7322371826171874	-0.47025592041015624	0		3.141361083984375	-0.07569814300537109	0		4.39832275390625	0.20641548156738282	0		5.8228525390625	0.21555409240722656	0		-0.1828467559814453	5.96173876953125	0		
-0.010833789825439453	-0.004859729766845703	0		0.4482455749511719	-2.421726806640625	0		-0.926687255859375	0.40161468505859377	0		-0.4797098693847656	-2.800169189453125	0		1.6975439453125	-0.4615166625976562	0		3.141595703125	-0.07640056610107422	0		4.39857373046875	0.205640869140625	0		5.8321123046875	0.17232289123535155	0		-0.2153359069824219	5.954568359375	0		
4.941860139369965E-4	0.004517753124237061	0		0.454427001953125	-2.4153193359375	0		-0.9173604125976562	0.4090568542480469	0		-0.47051559448242186	-2.79074853515625	0		1.7017882080078126	-0.45814804077148436	0		3.13689013671875	-0.07000792694091797	0		4.38695458984375	0.21904554748535157	0		5.8395322265625	0.20191917419433594	0		-0.21581532287597657	5.95508056640625	0		
7.049819827079773E-4	0.00402744197845459	0		0.4647223510742188	-2.398931640625	0		-0.8801362915039063	0.40821630859375	0		-0.47324420166015624	-2.775190673828125	0		1.70502294921875	-0.454734375	0		3.146962158203125	-0.08372063446044922	0		4.383111328125	0.2124307098388672	0		5.8475234375	0.20048927307128905	0		-0.2163682403564453	5.95560888671875	0		
9.011660218238831E-4	0.0035594449043273926	0		0.4378742980957031	-2.397130859375	0		-0.8849703979492187	0.4038251037597656	0		-0.44400137329101563	-2.76394873046875	0		1.702164794921875	-0.4592180480957031	0		3.12327197265625	-0.07302596282958984	0		4.35739794921875	0.22011216735839845	0		5.855505859375	0.19920050048828125	0		-0.1819464111328125	5.9607919921875	0		
-0.001948462963104248	1.4864300191402437E-4	0		0.4649921875	-2.39986279296875	0		-0.9207799682617187	0.4037742919921875	0		-0.5216959228515625	-2.747569091796875	0		1.6874228515625	-0.4515332946777344	0		3.1114111328125	-0.07739633941650391	0		4.36552001953125	0.2135116424560547	0		5.8514208984375	0.21393844604492188	0		-0.21670228576660155	5.95671875	0		
-0.0058126339912414554	-0.0032232410907745363	0		0.4422178955078125	-2.393039794921875	0		-0.9056634521484375	0.3982098388671875	0		-0.46858123779296873	-2.75153369140625	0		1.6984608154296874	-0.4640726318359375	0		3.088568359375	-0.07859003448486328	0		4.35383544921875	0.22719386291503907	0		5.84662158203125	0.23058164978027343	0		-0.1804668426513672	5.9589296875	0		
0.0014027049541473389	0.002320346117019653	0		0.4464327087402344	-2.388462890625	0		-0.8955230712890625	0.39671875	0		-0.538141357421875	-2.72518798828125	0		1.7026572265625	-0.4604906311035156	0		3.141729248046875	-0.07851445770263672	0		4.34198828125	0.22695419311523438	0		5.85890087890625	0.24003256225585937	0		-0.2134095458984375	5.95189111328125	0		
0.009531702995300293	8.87719988822937E-4	0		0.45064898681640625	-2.384847412109375	0		-0.875243896484375	0.41014697265625	0		-0.4639866638183594	-2.728317626953125	0		1.6818050537109375	-0.4605957336425781	0		3.08097802734375	-0.06818154907226562	0		4.34513525390625	0.22763693237304689	0		5.861943359375	0.26026312255859374	0		-0.21533541870117187	5.9535595703125	0		
0.0016699299812316896	0.0016583210229873656	0		0.4289618835449219	-2.372920654296875	0		-0.9161661376953125	0.4062395324707031	0		-0.5056328735351563	-2.713205322265625	0		1.67890234375	-0.46483535766601564	0		3.081982177734375	-0.08042755889892578	0		4.32727880859375	0.22961949157714845	0		5.85419189453125	0.2601728820800781	0		-0.21535614013671875	5.9532412109375	0		
0.0017843040227890014	0.0013840359449386597	0		0.431179931640625	-2.371200927734375	0		-0.884109130859375	0.4016011962890625	0		-0.46740484619140626	-2.711891845703125	0		1.6670233154296874	-0.4659263610839844	0		3.075078857421875	-0.08252136993408203	0		4.3153857421875	0.22962101745605468	0		5.86212109375	0.25985543823242185	0		-0.18138941955566407	5.9586064453125	0		
-0.005177197933197021	-0.004776985168457031	0		0.4403031311035156	-2.379508056640625	0		-0.9110358276367188	0.40060693359375	0		-0.5201494140625	-2.70859912109375	0		1.65816552734375	-0.46399258422851564	0		3.075182861328125	-0.08261745452880859	0		4.31154833984375	0.23662144470214844	0		5.8677919921875	0.23381442260742188	0		-0.21561622619628906	5.95271630859375	0		
